<?xml version="1.0" encoding="UTF-8" standalone="no"?>
<!DOCTYPE svg PUBLIC "-//W3C//DTD SVG 1.1//EN" "http://www.w3.org/Graphics/SVG/1.1/DTD/svg11.dtd">
<svg width="100%" height="100%" viewBox="0 0 256 256" version="1.1" xmlns="http://www.w3.org/2000/svg" xmlns:xlink="http://www.w3.org/1999/xlink" xml:space="preserve" xmlns:serif="http://www.serif.com/" style="fill-rule:evenodd;clip-rule:evenodd;stroke-linejoin:round;stroke-miterlimit:2;">
    <g transform="matrix(0.757251,0,0,0.709298,-234.966,-81.7969)">
        <path d="M636.845,189.146C636.845,181.6 631.107,175.474 624.039,175.474L338.965,175.474C331.898,175.474 326.16,181.6 326.16,189.146L326.16,216.488C326.16,224.034 331.898,230.16 338.965,230.16L624.039,230.16C631.107,230.16 636.845,224.034 636.845,216.488L636.845,189.146Z" style="fill:rgb(14,0,0);"/>
    </g>
    <g transform="matrix(0.757251,0,0,0.709298,-234.966,-18.0945)">
        <path d="M636.845,189.146C636.845,181.6 631.107,175.474 624.039,175.474L338.965,175.474C331.898,175.474 326.16,181.6 326.16,189.146L326.16,216.488C326.16,224.034 331.898,230.16 338.965,230.16L624.039,230.16C631.107,230.16 636.845,224.034 636.845,216.488L636.845,189.146Z" style="fill:rgb(14,0,0);"/>
    </g>
    <g transform="matrix(0.757251,0,0,0.709298,-234.966,45.6078)">
        <path d="M636.845,189.146C636.845,181.6 631.107,175.474 624.039,175.474L338.965,175.474C331.898,175.474 326.16,181.6 326.16,189.146L326.16,216.488C326.16,224.034 331.898,230.16 338.965,230.16L624.039,230.16C631.107,230.16 636.845,224.034 636.845,216.488L636.845,189.146Z" style="fill:rgb(14,0,0);"/>
    </g>
</svg>
